<?xml version="1.0" encoding="utf-8"?>
<!-- Generator: Adobe Illustrator 16.0.0, SVG Export Plug-In . SVG Version: 6.00 Build 0)  -->
<!DOCTYPE svg PUBLIC "-//W3C//DTD SVG 1.1//EN" "http://www.w3.org/Graphics/SVG/1.1/DTD/svg11.dtd">
<svg version="1.1" id="Layer_1" xmlns="http://www.w3.org/2000/svg" xmlns:xlink="http://www.w3.org/1999/xlink" x="0px" y="0px"
	 width="167px" height="49px" viewBox="0 0 167 49" enable-background="new 0 0 167 49" xml:space="preserve">
<g>
	<g>
		<path fill="#422A1A" d="M62.926,23.344c-0.78-0.43-1.982-1.017-3.145-1.584c-0.772-0.377-1.532-0.749-2.144-1.061
			c-2.787-1.427-2.787-2.136-2.787-3.209c0-1.09,0.767-2.189,2.481-2.189h8.938v-2.626h-8.938c-3.317,0-5.107,2.481-5.107,4.815
			c0,2.533,1.064,3.933,4.217,5.546c0.625,0.319,1.401,0.698,2.188,1.083c1.134,0.554,2.307,1.126,3.03,1.524
			c2.194,1.209,2.272,2.323,2.174,3.274c-0.116,1.104-1.459,2.142-2.416,2.142h-9.193v2.627h9.193c2.385,0,4.782-2.144,5.027-4.497
			C66.707,26.668,65.589,24.811,62.926,23.344"/>
		<polygon fill="#422A1A" points="68.248,15.301 74.459,15.301 74.459,33.668 77.085,33.668 77.085,15.301 83.296,15.301 
			83.296,12.674 68.248,12.674 		"/>
		<path fill="#422A1A" d="M93.583,12.274C87.65,12.36,82.892,17.258,82.978,23.19c0.085,5.935,4.983,10.69,10.915,10.604
			c5.935-0.086,10.69-4.982,10.605-10.915C104.412,16.947,99.515,12.189,93.583,12.274 M93.856,31.169
			c-4.485,0.064-8.187-3.531-8.252-8.016c-0.064-4.486,3.531-8.188,8.016-8.252c4.486-0.065,8.188,3.531,8.253,8.017
			C101.937,27.402,98.341,31.104,93.856,31.169"/>
		<path fill="#422A1A" d="M126.861,15.264h10.58v-2.627h-10.58c-1.648,0-2.845,1.197-2.845,2.845v15.504
			c-0.004,0.175,0.008,1.09,0.729,1.833c0.369,0.379,1.048,0.831,2.188,0.831h10.36v-2.627h-10.36
			c-0.187,0.001-0.285-0.031-0.292-0.005v-6.27h8.901v-2.626h-8.901v-6.641C126.642,15.306,126.663,15.264,126.861,15.264"/>
		<path fill="#422A1A" d="M119.399,33.654h3.139l-5.5-8.42c1.971-0.547,4.32-2.28,4.32-6.427c0-1.882-0.568-3.392-1.691-4.489
			c-1.728-1.688-4.061-1.675-4.291-1.677h-5.545c-2.29,0-3.356,1.808-3.356,3.029v17.984h2.626l-0.001-8.208h4.939L119.399,33.654z
			 M109.098,15.706c0.016-0.103,0.113-0.438,0.732-0.438h5.576c0.01-0.028,1.483,0.01,2.425,0.93c0.598,0.583,0.9,1.46,0.9,2.609
			c0,3.9-2.816,4.013-3.138,4.013h-6.495L109.098,15.706z"/>
		<path fill="#BFC600" d="M151.538,18.566c0.833-1.98,0.883-3.477,0.154-4.576c-0.424-0.638-1.315-1.401-3.148-1.401h-8.85v2.655
			h8.85c0.628,0,0.887,0.141,0.937,0.216c0.103,0.153,0.152,0.787-0.391,2.076c-1.321,3.139-6.097,13.958-7.052,16.118h2.902
			C146.482,30.161,150.361,21.36,151.538,18.566"/>
		<path fill="#BFC600" d="M165.706,13.99c-0.425-0.638-1.315-1.401-3.148-1.401h-8.852v2.655h8.852c0.628,0,0.888,0.141,0.937,0.215
			c0.104,0.154,0.153,0.788-0.39,2.076c-1.32,3.14-6.098,13.958-7.052,16.119h2.903c1.542-3.493,5.419-12.293,6.597-15.087
			C166.385,16.585,166.435,15.089,165.706,13.99"/>
		<path fill="#E0DD00" d="M34.82,10.369c-3.993-0.561-3.375-3.266-4.375-6.852c-0.991-3.549-3.384-2.394-4.045-3.137l-0.413,0.578
			c0,0,2.311,0.825,1.898,2.559c-0.501,2.107-3.467,2.972-6.769,0.579c-1.244-0.902-6.109-3.22-9.989-1.733
			C8.734,3.104,7.083,5.745,9.89,8.222c2.92,2.577,0.874,4.478-2.807,6.687c-5.052,3.031-7.428,7.551-5.147,10.861
			c1.845,2.677,4.111,1.736,6.441,1.84c2.33,0.105,3.68,1.472,0.944,3.954c-2.736,2.482-5.139,8.051-2.179,9.272
			c2.186,0.901,3.945-1.086,4.445-0.016c0.5,1.069-1.457,6.87,3.096,7.781c4.553,0.91,5.343-5.757,6.021-6.398
			c1.845-1.751,1.422,2.583,4.817,1.855c2.5-0.534,3.355-3.796,2.913-7.064c-0.443-3.268,1.89-3.112,3.129,0
			s5.649,1.896,7.177-1.287c2.208-4.601,1.062-8.225-0.867-11.884c-1.928-3.659,2.809-1.238,5.118-4.581
			C44.561,16.971,44.23,11.689,34.82,10.369"/>
		<path fill="#763B19" d="M18.959,21.686c0,0-2.146,5.944,1.32,9.905c3.467,3.964,6.274,5.283,6.274,5.283s-3.632,4.623-6.439,1.981
			c-2.807-2.641-7.265-2.807-9.245-8.75c-1.981-5.943-0.331-6.273-0.331-6.273S14.502,21.851,18.959,21.686"/>
		<path fill="#763B19" d="M31.192,20.2c0,0-12.223-3.095-14.469,1.667c-2.248,4.762-2.336,7.862-2.336,7.862
			s-7.279-4.415-5.979-8.043c1.299-3.628,1.259-4.848,5.916-9.04s4.816-3.673,8.614-3.013C26.734,10.294,35.98,18.714,31.192,20.2"
			/>
		<path fill="#B75D1B" d="M13.843,23.205c0,0-0.955,3.948,1.153,6.449c2.107,2.502,6.847,5.399,6.847,5.399s7.111-4.214,8.032-5.926
			c0.922-1.712,1.317-6.453,1.317-6.453S19.669,17.94,13.843,23.205"/>
		<path fill="#422A1A" d="M23.015,8.521c-0.191-0.655-0.285-4.009,1.816-6.408c0.276-0.315,1.099-0.916,1.679-0.877l-0.027-0.857
			c-0.755-0.289-2.037,0.416-2.642,0.908c-2.642,2.146-3.471,6.466-3.629,7.244c-6.834,0.69-13.433,7.24-13.433,15.095
			c0,1.16,1.53,1.127,2.066,1.518c0.445,3.269,0.791,5.943,2.728,8.191c2.331,2.707,7.738,6.695,10.15,6.695
			c1.871,0,8.191-4.232,10.469-7.069c1.771-2.211,1.783-4.773,2.191-7.876c0.528-0.358,2.058-0.32,2.058-1.458
			C36.441,15.698,29.126,9.11,23.015,8.521 M21.723,10.126c5.563,0,10.981,5.729,12.132,11.248c0.09,0.432,0.181,1.284-0.859,0.957
			c-11.064-3.468-16.406-1.666-22.667,0.157c-0.46,0.134-1.178-0.009-0.959-1.072C10.78,14.529,16.291,10.126,21.723,10.126
			 M30.207,32.676c-1.682,2.096-7.403,5.207-8.546,5.454c-1.183-0.11-6.139-3.291-7.959-5.405c-1.775-2.061-1.988-2.484-2.469-7.302
			c-0.076-0.753-0.188-0.941,0.188-1.092c3.469-1.71,11.479-4.556,20.629-0.161c0.557,0.274,0.314,0.928,0.293,1.141
			C32.089,27.961,31.653,30.871,30.207,32.676"/>
		<path fill="#B75D1B" d="M21.723,10.126c0,0-7.371,0.664-8.362,7.103c0,0-1.156,2.642,2.146,1.816
			c3.302-0.825,8.42-1.321,12.548-0.33c4.127,0.991,2.312-2.312,1.32-3.467C28.385,14.091,25.626,11.279,21.723,10.126"/>
	</g>
</g>
</svg>
